<svg width="500" height="500" viewBox="0 0 500 500" fill="none" xmlns="http://www.w3.org/2000/svg">
<path fill-rule="evenodd" clip-rule="evenodd" d="M197.915 20.8164C193.407 20.8164 189.021 22.2784 185.415 24.9831C181.809 27.6877 179.177 31.489 177.915 35.8164L104.998 285.816C104.093 288.921 103.923 292.194 104.501 295.377C105.08 298.559 106.391 301.562 108.332 304.15C110.272 306.737 112.789 308.837 115.681 310.284C118.574 311.73 121.764 312.483 124.998 312.483H205.561L187.644 455.733C187.054 460.395 188.057 465.119 190.49 469.138C192.924 473.158 196.644 476.237 201.048 477.876C205.452 479.514 210.28 479.616 214.749 478.164C219.218 476.712 223.065 473.793 225.665 469.879L392.332 219.879C394.425 216.741 395.627 213.094 395.81 209.327C395.993 205.56 395.15 201.814 393.371 198.488C391.591 195.162 388.943 192.382 385.707 190.444C382.471 188.506 378.77 187.482 374.998 187.483H300.894L352.832 48.9622C354.013 45.811 354.413 42.4205 353.998 39.0808C353.583 35.7411 352.365 32.5516 350.449 29.7853C348.532 27.0189 345.974 24.7581 342.993 23.1961C340.012 21.6342 336.697 20.8177 333.332 20.8164H197.915Z" fill="#2D2D2D"/>
</svg>
