<svg width="500" height="500" viewBox="0 0 500 500" fill="none" xmlns="http://www.w3.org/2000/svg">
<path d="M172.464 203.018L312.259 342.813C327.955 358.5 344.277 355.992 358.92 341.34L462.714 237.965C477.357 223.322 479.67 207 463.964 191.304L442.83 170.375C417.938 192.554 348.036 242.367 337.161 231.483C333.598 227.92 336.536 224.786 338.625 222.688C361.643 199.045 392.402 161.375 396.384 123.5L286.098 13.2148C273.125 3.5719 253.866 7.14333 243.411 15.5183C222.277 45.4469 222.696 95.4558 172.464 155.313C158.661 172.054 156.357 186.911 172.464 203.018ZM49 471.715C76.625 498.92 111.366 499.75 136.054 475.063C155.518 455.813 175.813 404.125 189.839 380.063L248.429 438.438C265.17 455.188 283.795 455.599 299.491 439.911L312.679 426.518C328.366 410.822 327.946 392.197 311.42 375.447L145.473 209.518C128.732 192.563 110.321 192.152 94.4107 208.268L81.2322 221.429C65.1161 237.331 65.5357 255.536 82.4822 272.492L140.661 330.875C116.804 344.893 64.9107 365.402 45.6607 384.652C20.3304 409.768 21.5893 444.724 49 471.715ZM77.4643 442.197C70.5536 435.081 70.3482 423.786 77.4643 416.67C84.7857 409.554 96.0893 409.554 103.205 416.67C110.321 423.992 110.321 434.875 103.205 442.206C96.0893 449.536 84.7857 449.724 77.4643 442.197Z" fill="#2D2D2D"/>
</svg>
