<svg width="500" height="500" viewBox="0 0 500 500" fill="none" xmlns="http://www.w3.org/2000/svg">
<g clip-path="url(#clip0_29_10)">
<path fill-rule="evenodd" clip-rule="evenodd" d="M249.893 0.321847C225.644 -0.0169077 201.569 4.46672 179.067 13.5122C156.565 22.5577 136.085 35.9847 118.818 53.0131C101.55 70.0415 87.8378 90.3317 78.4789 112.705C69.12 135.078 64.3005 159.088 64.3005 183.34C64.3005 207.591 69.12 231.601 78.4789 253.975C87.8378 276.348 101.55 296.638 118.818 313.666C136.085 330.695 156.565 344.122 179.067 353.167C201.569 362.213 225.644 366.696 249.893 366.358C298.437 366.358 344.993 347.074 379.319 312.748C413.645 278.422 432.929 231.866 432.929 183.322C432.929 134.778 413.645 88.2219 379.319 53.8961C344.993 19.5702 298.437 0.321847 249.893 0.321847ZM257.143 86.8576L281.536 135.929C282.065 137.176 282.923 138.256 284.017 139.054C285.111 139.853 286.401 140.34 287.75 140.465L341.893 148.679C343.443 148.877 344.905 149.514 346.106 150.514C347.308 151.514 348.199 152.835 348.675 154.324C349.151 155.813 349.193 157.407 348.795 158.918C348.397 160.43 347.576 161.796 346.429 162.858L306.5 200.858C305.9 201.991 305.586 203.254 305.586 204.536C305.586 205.819 305.9 207.082 306.5 208.215L314.143 262.072C314.464 263.623 314.331 265.233 313.758 266.71C313.185 268.187 312.198 269.466 310.915 270.394C309.632 271.323 308.107 271.861 306.526 271.943C304.944 272.025 303.372 271.648 302 270.858L253.786 245.358C252.535 244.79 251.177 244.497 249.804 244.497C248.43 244.497 247.072 244.79 245.821 245.358L197.607 270.858C196.235 271.648 194.663 272.025 193.081 271.943C191.5 271.861 189.976 271.323 188.692 270.394C187.409 269.466 186.422 268.187 185.849 266.71C185.276 265.233 185.143 263.623 185.464 262.072L194.5 208.215C194.894 206.966 194.969 205.64 194.719 204.355C194.47 203.07 193.904 201.868 193.071 200.858L153.107 162.572C152.034 161.5 151.278 160.152 150.924 158.677C150.57 157.202 150.631 155.658 151.101 154.216C151.57 152.773 152.43 151.489 153.585 150.506C154.74 149.522 156.144 148.877 157.643 148.643L211.821 140.75C213.17 140.626 214.46 140.139 215.554 139.34C216.649 138.541 217.506 137.461 218.036 136.215L242.429 87.1433C243.078 85.7505 244.105 84.5678 245.393 83.7295C246.681 82.8913 248.178 82.4311 249.715 82.4013C251.251 82.3716 252.765 82.7734 254.084 83.5611C255.404 84.3489 256.476 85.491 257.179 86.8576H257.143ZM439.286 309.643C408.469 355.734 361.95 389.053 308.393 403.393L358.821 490.75C360.586 493.81 363.217 496.277 366.384 497.841C369.55 499.404 373.109 499.994 376.61 499.535C380.112 499.077 383.399 497.59 386.055 495.264C388.712 492.937 390.619 489.875 391.536 486.465L409.75 418.643L477.536 436.822C480.946 437.732 484.55 437.611 487.892 436.474C491.234 435.337 494.164 433.235 496.312 430.434C498.46 427.633 499.729 424.257 499.96 420.735C500.19 417.212 499.372 413.701 497.607 410.643L439.286 309.643ZM191.571 403.429C137.982 389.2 91.4187 355.919 60.6072 309.822L2.39288 410.643C0.628515 413.701 -0.1901 417.212 0.0404563 420.735C0.271012 424.257 1.5404 427.633 3.68824 430.434C5.83608 433.235 8.76602 435.337 12.1079 436.474C15.4498 437.611 19.0537 437.732 22.4643 436.822L90.2858 418.643L108.464 486.465C109.381 489.875 111.288 492.937 113.945 495.264C116.602 497.59 119.888 499.077 123.39 499.535C126.891 499.994 130.45 499.404 133.617 497.841C136.783 496.277 139.414 493.81 141.179 490.75L191.571 403.429Z" fill="#2D2D2D"/>
</g>
<defs>
<clipPath id="clip0_29_10">
<rect width="500" height="500" fill="white"/>
</clipPath>
</defs>
</svg>
